<svg width="264" height="61" viewBox="0 0 264 61" fill="none" xmlns="http://www.w3.org/2000/svg">
          <path d="M46.1899 26.3353L40.2816 49H33.5984L29.9824 34.0839L26.2372 49H19.554L13.8071 26.3353H19.7155L22.9764 42.8334L27.0121 26.3353H33.0818L36.9562 42.8334L40.2493 26.3353H46.1899ZM65.9411 39.7017C65.9411 40.2182 65.9088 40.7563 65.8442 41.3159H53.3496C53.4357 42.4352 53.7908 43.2962 54.415 43.8988C55.0607 44.48 55.8464 44.7705 56.7719 44.7705C58.1494 44.7705 59.1072 44.1894 59.6453 43.0271H65.5214C65.22 44.2109 64.6712 45.2764 63.8748 46.2234C63.0999 47.1705 62.1206 47.913 60.9368 48.4511C59.753 48.9892 58.4292 49.2583 56.9656 49.2583C55.2006 49.2583 53.6294 48.8816 52.2519 48.1283C50.8743 47.3749 49.7981 46.2987 49.0233 44.8997C48.2484 43.5006 47.861 41.8648 47.861 39.9922C47.861 38.1196 48.2376 36.4838 48.991 35.0848C49.7658 33.6857 50.842 32.6095 52.2196 31.8562C53.5971 31.1028 55.1791 30.7262 56.9656 30.7262C58.7091 30.7262 60.2588 31.0921 61.6148 31.8239C62.9708 32.5557 64.0255 33.5996 64.7788 34.9556C65.5537 36.3116 65.9411 37.8936 65.9411 39.7017ZM60.2911 38.2488C60.2911 37.3017 59.9682 36.5484 59.3225 35.9888C58.6768 35.4291 57.8696 35.1493 56.901 35.1493C55.9755 35.1493 55.1899 35.4184 54.5442 35.9565C53.92 36.4946 53.5325 37.2587 53.3819 38.2488H60.2911ZM67.7559 39.9599C67.7559 38.1089 68.1003 36.4838 68.7891 35.0848C69.4994 33.6857 70.4572 32.6095 71.6625 31.8562C72.8679 31.1028 74.2131 30.7262 75.6983 30.7262C76.9682 30.7262 78.0767 30.9845 79.0237 31.501C79.9923 32.0176 80.7349 32.6956 81.2514 33.535V30.9845H86.7723V49H81.2514V46.4494C80.7133 47.2888 79.96 47.9669 78.9914 48.4834C78.0444 49 76.9359 49.2583 75.666 49.2583C74.2023 49.2583 72.8679 48.8816 71.6625 48.1283C70.4572 47.3534 69.4994 46.2665 68.7891 44.8674C68.1003 43.4468 67.7559 41.811 67.7559 39.9599ZM81.2514 39.9922C81.2514 38.6147 80.864 37.5277 80.0891 36.7313C79.3358 35.935 78.4103 35.5368 77.3126 35.5368C76.2148 35.5368 75.2785 35.935 74.5037 36.7313C73.7503 37.5062 73.3737 38.5824 73.3737 39.9599C73.3737 41.3375 73.7503 42.4352 74.5037 43.2531C75.2785 44.0495 76.2148 44.4477 77.3126 44.4477C78.4103 44.4477 79.3358 44.0495 80.0891 43.2531C80.864 42.4567 81.2514 41.3698 81.2514 39.9922ZM100.807 44.3185V49H97.9985C95.9968 49 94.4363 48.5157 93.317 47.5471C92.1978 46.557 91.6382 44.9535 91.6382 42.7365V35.5691H89.4427V30.9845H91.6382V26.5936H97.1591V30.9845H100.775V35.5691H97.1591V42.8011C97.1591 43.3392 97.2882 43.7266 97.5465 43.9634C97.8048 44.2002 98.2353 44.3185 98.8379 44.3185H100.807ZM114.957 30.7907C117.023 30.7907 118.68 31.4795 119.929 32.857C121.177 34.213 121.801 36.0856 121.801 38.4748V49H116.313V39.2174C116.313 38.012 116.001 37.0757 115.376 36.4085C114.752 35.7412 113.913 35.4076 112.858 35.4076C111.803 35.4076 110.964 35.7412 110.34 36.4085C109.716 37.0757 109.404 38.012 109.404 39.2174V49H103.883V25.1084H109.404V33.4059C109.963 32.6095 110.727 31.9746 111.696 31.501C112.664 31.0275 113.751 30.7907 114.957 30.7907ZM142.62 39.7017C142.62 40.2182 142.588 40.7563 142.523 41.3159H130.029C130.115 42.4352 130.47 43.2962 131.094 43.8988C131.74 44.48 132.525 44.7705 133.451 44.7705C134.829 44.7705 135.786 44.1894 136.324 43.0271H142.2C141.899 44.2109 141.35 45.2764 140.554 46.2234C139.779 47.1705 138.8 47.913 137.616 48.4511C136.432 48.9892 135.108 49.2583 133.645 49.2583C131.88 49.2583 130.308 48.8816 128.931 48.1283C127.553 47.3749 126.477 46.2987 125.702 44.8997C124.927 43.5006 124.54 41.8648 124.54 39.9922C124.54 38.1196 124.917 36.4838 125.67 35.0848C126.445 33.6857 127.521 32.6095 128.899 31.8562C130.276 31.1028 131.858 30.7262 133.645 30.7262C135.388 30.7262 136.938 31.0921 138.294 31.8239C139.65 32.5557 140.705 33.5996 141.458 34.9556C142.233 36.3116 142.62 37.8936 142.62 39.7017ZM136.97 38.2488C136.97 37.3017 136.647 36.5484 136.002 35.9888C135.356 35.4291 134.549 35.1493 133.58 35.1493C132.655 35.1493 131.869 35.4184 131.223 35.9565C130.599 36.4946 130.212 37.2587 130.061 38.2488H136.97ZM151.054 33.987C151.699 32.9969 152.506 32.2221 153.475 31.6625C154.444 31.0813 155.52 30.7907 156.704 30.7907V36.6345H155.186C153.809 36.6345 152.776 36.9358 152.087 37.5385C151.398 38.1196 151.054 39.1528 151.054 40.6379V49H145.533V30.9845H151.054V33.987ZM164.863 25.1084V49H159.343V25.1084H164.863ZM177.065 49.2583C175.3 49.2583 173.707 48.8816 172.287 48.1283C170.888 47.3749 169.779 46.2987 168.961 44.8997C168.165 43.5006 167.767 41.8648 167.767 39.9922C167.767 38.1412 168.176 36.5161 168.993 35.1171C169.811 33.6965 170.931 32.6095 172.351 31.8562C173.772 31.1028 175.365 30.7262 177.13 30.7262C178.894 30.7262 180.487 31.1028 181.908 31.8562C183.328 32.6095 184.448 33.6965 185.266 35.1171C186.083 36.5161 186.492 38.1412 186.492 39.9922C186.492 41.8433 186.073 43.4791 185.233 44.8997C184.415 46.2987 183.285 47.3749 181.843 48.1283C180.423 48.8816 178.83 49.2583 177.065 49.2583ZM177.065 44.48C178.12 44.48 179.013 44.0925 179.745 43.3177C180.498 42.5428 180.875 41.4343 180.875 39.9922C180.875 38.5501 180.509 37.4416 179.777 36.6668C179.067 35.8919 178.184 35.5045 177.13 35.5045C176.053 35.5045 175.16 35.8919 174.45 36.6668C173.74 37.4201 173.384 38.5286 173.384 39.9922C173.384 41.4343 173.729 42.5428 174.418 43.3177C175.128 44.0925 176.01 44.48 177.065 44.48ZM188.324 40.0245C188.324 38.238 188.69 36.6453 189.421 35.2462C190.175 33.8471 191.176 32.7602 192.424 31.9853C193.694 31.1889 195.071 30.7907 196.557 30.7907C197.697 30.7907 198.72 30.9952 199.624 31.4042C200.528 31.7916 201.26 32.3405 201.819 33.0508V30.9845H207.34V57.5881H201.819V46.74C201.195 47.4933 200.431 48.096 199.527 48.548C198.644 49 197.633 49.226 196.492 49.226C195.028 49.226 193.672 48.8386 192.424 48.0637C191.176 47.2888 190.175 46.2019 189.421 44.8028C188.69 43.4038 188.324 41.811 188.324 40.0245ZM201.819 39.9922C201.819 39.0236 201.625 38.2165 201.238 37.5708C200.872 36.9035 200.388 36.4085 199.785 36.0856C199.183 35.7412 198.548 35.5691 197.88 35.5691C197.235 35.5691 196.61 35.7412 196.008 36.0856C195.405 36.4085 194.91 36.9035 194.523 37.5708C194.135 38.238 193.941 39.0559 193.941 40.0245C193.941 40.9931 194.135 41.811 194.523 42.4782C194.91 43.124 195.405 43.619 196.008 43.9634C196.61 44.2863 197.235 44.4477 197.88 44.4477C198.526 44.4477 199.15 44.2863 199.753 43.9634C200.377 43.619 200.872 43.1132 201.238 42.446C201.625 41.7787 201.819 40.9608 201.819 39.9922ZM229.124 30.9845V49H223.603V46.5463C223.043 47.3427 222.279 47.9884 221.311 48.4834C220.364 48.957 219.309 49.1937 218.147 49.1937C216.769 49.1937 215.553 48.8924 214.498 48.2897C213.444 47.6655 212.626 46.7723 212.045 45.61C211.463 44.4477 211.173 43.0809 211.173 41.5097V30.9845H216.661V40.7671C216.661 41.9724 216.973 42.9087 217.598 43.576C218.222 44.2432 219.061 44.5768 220.116 44.5768C221.192 44.5768 222.042 44.2432 222.667 43.576C223.291 42.9087 223.603 41.9724 223.603 40.7671V30.9845H229.124ZM250.072 39.7017C250.072 40.2182 250.039 40.7563 249.975 41.3159H237.48C237.566 42.4352 237.922 43.2962 238.546 43.8988C239.191 44.48 239.977 44.7705 240.903 44.7705C242.28 44.7705 243.238 44.1894 243.776 43.0271H249.652C249.351 44.2109 248.802 45.2764 248.005 46.2234C247.231 47.1705 246.251 47.913 245.067 48.4511C243.884 48.9892 242.56 49.2583 241.096 49.2583C239.331 49.2583 237.76 48.8816 236.383 48.1283C235.005 47.3749 233.929 46.2987 233.154 44.8997C232.379 43.5006 231.992 41.8648 231.992 39.9922C231.992 38.1196 232.368 36.4838 233.122 35.0848C233.897 33.6857 234.973 32.6095 236.35 31.8562C237.728 31.1028 239.31 30.7262 241.096 30.7262C242.84 30.7262 244.389 31.0921 245.745 31.8239C247.101 32.5557 248.156 33.5996 248.909 34.9556C249.684 36.3116 250.072 37.8936 250.072 39.7017ZM244.422 38.2488C244.422 37.3017 244.099 36.5484 243.453 35.9888C242.807 35.4291 242 35.1493 241.032 35.1493C240.106 35.1493 239.321 35.4184 238.675 35.9565C238.051 36.4946 237.663 37.2587 237.513 38.2488H244.422Z" fill="#FFA500"/>
          <path d="M66.1175 31.861C67.4983 31.566 68.8624 31.1059 70.1782 30.448C71.9222 29.576 73.4284 28.4359 74.698 27.1226C67.8853 28.017 60.9278 24.7662 57.5983 18.5035C54.2684 12.2404 55.5713 4.86088 60.2766 0C58.4357 0.240564 56.6058 0.767736 54.8601 1.64023C50.1766 3.98129 47.1315 8.1727 46.1568 12.8171C42.2059 9.66306 37.1507 7.76295 31.6453 7.76295C19.0395 7.76295 8.78307 17.705 8.78307 29.9278C8.78307 30.0004 8.78387 30.0724 8.78546 30.145C3.40948 32.9576 0 38.4284 0 44.4014C0 53.3379 7.49788 60.6079 16.7159 60.6079H55.5467C64.763 60.6079 72.2631 53.3379 72.2631 44.4014C72.2625 39.3506 69.865 34.8361 66.1175 31.861ZM55.5469 57.144H16.7149C9.46805 57.144 3.57124 51.427 3.57124 44.4012C3.57124 39.3861 6.63009 34.8216 11.363 32.7708L12.4938 32.2809L12.3975 30.7836C12.3774 30.5005 12.3549 30.2169 12.3549 29.9276C12.3549 19.6157 21.0083 11.2259 31.6453 11.2259C42.2826 11.2259 50.938 19.6147 50.9354 29.9391C50.9303 30.0194 50.9251 30.0981 50.9236 30.1781L50.9035 32.2928L53.0458 31.8946C53.892 31.7366 54.7342 31.6589 55.5478 31.6589C62.7958 31.6589 68.692 37.3749 68.692 44.4015C68.6918 51.427 62.7939 57.144 55.5469 57.144Z" fill="#FFA500"/>
          </svg>