<svg width="269" height="56" viewBox="0 0 269 56" fill="none" xmlns="http://www.w3.org/2000/svg">
          <path
            d="M45.3124 11C39.0301 11 33.6533 14.2731 31.0141 18.9746C29.9612 18.3864 28.7889 18.0256 27.5465 18.0256C23.7982 18.0256 20.6746 21.0432 19.713 25.1397C18.0634 24.489 16.1612 24.0854 14.1186 24.0854C7.98372 24.0854 3 27.4469 3 31.5855C3 35.3219 7.07821 38.3949 12.3848 38.9628C12.1461 39.3664 11.9566 39.7693 11.9566 40.1926C11.9566 44.155 22.8155 47.3761 36.2013 47.3761C49.5801 47.3761 60.439 44.155 60.439 40.1926C60.439 39.9258 60.2635 39.6788 60.1652 39.4198C60.7548 39.5651 61.3445 39.7181 61.9832 39.7181C65.5631 39.7181 68.462 37.2845 68.462 34.2908C68.462 31.297 65.5631 28.881 61.9832 28.881C61.548 28.881 61.162 29.0221 60.7478 29.0916C61.1058 27.8948 61.3585 26.6671 61.3585 25.3678C61.3585 17.443 54.1707 11 45.3124 11V11Z"
            fill="#110023" stroke="#FFA500" stroke-width="4.31968" stroke-miterlimit="0.5" stroke-linecap="round"
            stroke-linejoin="round" />
          <path
            d="M72.6054 3C69.3976 3 66.6531 4.6334 65.3053 6.98065C64.7649 6.68724 64.1682 6.50755 63.5365 6.50755C61.6202 6.50755 60.0268 8.01389 59.5285 10.0586C58.6932 9.73362 57.7174 9.53216 56.6786 9.53216C53.541 9.53216 51 11.2105 51 13.277C51 15.142 53.0777 16.6757 55.7872 16.9593C55.6678 17.1607 55.5696 17.3622 55.5696 17.5735C55.5696 19.5515 61.1219 21.1596 67.9516 21.1596C74.7884 21.1596 80.3337 19.5515 80.3337 17.5735C80.3337 17.4401 80.2494 17.3166 80.2003 17.1874C80.4951 17.2604 80.7969 17.3369 81.1268 17.3369C82.9519 17.3369 84.4329 16.1219 84.4329 14.6268C84.4329 13.1324 82.9519 11.9265 81.1268 11.9265C80.9022 11.9265 80.7057 11.9966 80.4951 12.0317C80.6776 11.4337 80.804 10.8209 80.804 10.1723C80.804 6.21625 77.1328 3 72.6054 3V3Z"
            fill="#FFA500" stroke="#110023" stroke-width="4.31968" stroke-miterlimit="0.5" stroke-linecap="round"
            stroke-linejoin="round" />
          <path
            d="M51.1899 21.3353L45.2816 44H38.5984L34.9824 29.0839L31.2372 44H24.554L18.8071 21.3353H24.7155L27.9764 37.8334L32.0121 21.3353H38.0818L41.9562 37.8334L45.2493 21.3353H51.1899ZM70.9411 34.7017C70.9411 35.2182 70.9088 35.7563 70.8442 36.3159H58.3496C58.4357 37.4352 58.7908 38.2962 59.415 38.8988C60.0607 39.48 60.8464 39.7705 61.7719 39.7705C63.1494 39.7705 64.1072 39.1894 64.6453 38.0271H70.5214C70.22 39.2109 69.6712 40.2764 68.8748 41.2234C68.0999 42.1705 67.1206 42.913 65.9368 43.4511C64.753 43.9892 63.4292 44.2583 61.9656 44.2583C60.2006 44.2583 58.6294 43.8816 57.2519 43.1283C55.8743 42.3749 54.7981 41.2987 54.0233 39.8997C53.2484 38.5006 52.861 36.8648 52.861 34.9922C52.861 33.1196 53.2376 31.4838 53.991 30.0848C54.7658 28.6857 55.842 27.6095 57.2196 26.8562C58.5971 26.1028 60.1791 25.7262 61.9656 25.7262C63.7091 25.7262 65.2588 26.0921 66.6148 26.8239C67.9708 27.5557 69.0255 28.5996 69.7788 29.9556C70.5537 31.3116 70.9411 32.8936 70.9411 34.7017ZM65.2911 33.2488C65.2911 32.3017 64.9682 31.5484 64.3225 30.9888C63.6768 30.4291 62.8696 30.1493 61.901 30.1493C60.9755 30.1493 60.1899 30.4184 59.5442 30.9565C58.92 31.4946 58.5325 32.2587 58.3819 33.2488H65.2911ZM72.7559 34.9599C72.7559 33.1089 73.1003 31.4838 73.7891 30.0848C74.4994 28.6857 75.4572 27.6095 76.6625 26.8562C77.8679 26.1028 79.2131 25.7262 80.6983 25.7262C81.9682 25.7262 83.0767 25.9845 84.0237 26.501C84.9923 27.0176 85.7349 27.6956 86.2514 28.535V25.9845H91.7723V44H86.2514V41.4494C85.7133 42.2888 84.96 42.9669 83.9914 43.4834C83.0444 44 81.9359 44.2583 80.666 44.2583C79.2023 44.2583 77.8679 43.8816 76.6625 43.1283C75.4572 42.3534 74.4994 41.2665 73.7891 39.8674C73.1003 38.4468 72.7559 36.811 72.7559 34.9599ZM86.2514 34.9922C86.2514 33.6147 85.864 32.5277 85.0891 31.7313C84.3358 30.935 83.4103 30.5368 82.3126 30.5368C81.2148 30.5368 80.2785 30.935 79.5037 31.7313C78.7503 32.5062 78.3737 33.5824 78.3737 34.9599C78.3737 36.3375 78.7503 37.4352 79.5037 38.2531C80.2785 39.0495 81.2148 39.4477 82.3126 39.4477C83.4103 39.4477 84.3358 39.0495 85.0891 38.2531C85.864 37.4567 86.2514 36.3698 86.2514 34.9922ZM105.807 39.3185V44H102.999C100.997 44 99.4363 43.5157 98.317 42.5471C97.1978 41.557 96.6382 39.9535 96.6382 37.7365V30.5691H94.4427V25.9845H96.6382V21.5936H102.159V25.9845H105.775V30.5691H102.159V37.8011C102.159 38.3392 102.288 38.7266 102.546 38.9634C102.805 39.2002 103.235 39.3185 103.838 39.3185H105.807ZM119.957 25.7907C122.023 25.7907 123.68 26.4795 124.929 27.857C126.177 29.213 126.801 31.0856 126.801 33.4748V44H121.313V34.2174C121.313 33.012 121.001 32.0757 120.376 31.4085C119.752 30.7412 118.913 30.4076 117.858 30.4076C116.803 30.4076 115.964 30.7412 115.34 31.4085C114.716 32.0757 114.404 33.012 114.404 34.2174V44H108.883V20.1084H114.404V28.4059C114.963 27.6095 115.727 26.9746 116.696 26.501C117.664 26.0275 118.751 25.7907 119.957 25.7907ZM147.62 34.7017C147.62 35.2182 147.588 35.7563 147.523 36.3159H135.029C135.115 37.4352 135.47 38.2962 136.094 38.8988C136.74 39.48 137.525 39.7705 138.451 39.7705C139.829 39.7705 140.786 39.1894 141.324 38.0271H147.2C146.899 39.2109 146.35 40.2764 145.554 41.2234C144.779 42.1705 143.8 42.913 142.616 43.4511C141.432 43.9892 140.108 44.2583 138.645 44.2583C136.88 44.2583 135.308 43.8816 133.931 43.1283C132.553 42.3749 131.477 41.2987 130.702 39.8997C129.927 38.5006 129.54 36.8648 129.54 34.9922C129.54 33.1196 129.917 31.4838 130.67 30.0848C131.445 28.6857 132.521 27.6095 133.899 26.8562C135.276 26.1028 136.858 25.7262 138.645 25.7262C140.388 25.7262 141.938 26.0921 143.294 26.8239C144.65 27.5557 145.705 28.5996 146.458 29.9556C147.233 31.3116 147.62 32.8936 147.62 34.7017ZM141.97 33.2488C141.97 32.3017 141.647 31.5484 141.002 30.9888C140.356 30.4291 139.549 30.1493 138.58 30.1493C137.655 30.1493 136.869 30.4184 136.223 30.9565C135.599 31.4946 135.212 32.2587 135.061 33.2488H141.97ZM156.054 28.987C156.699 27.9969 157.506 27.2221 158.475 26.6625C159.444 26.0813 160.52 25.7907 161.704 25.7907V31.6345H160.186C158.809 31.6345 157.776 31.9358 157.087 32.5385C156.398 33.1196 156.054 34.1528 156.054 35.6379V44H150.533V25.9845H156.054V28.987ZM169.863 20.1084V44H164.343V20.1084H169.863ZM182.065 44.2583C180.3 44.2583 178.707 43.8816 177.287 43.1283C175.888 42.3749 174.779 41.2987 173.961 39.8997C173.165 38.5006 172.767 36.8648 172.767 34.9922C172.767 33.1412 173.176 31.5161 173.993 30.1171C174.811 28.6965 175.931 27.6095 177.351 26.8562C178.772 26.1028 180.365 25.7262 182.13 25.7262C183.894 25.7262 185.487 26.1028 186.908 26.8562C188.328 27.6095 189.448 28.6965 190.266 30.1171C191.083 31.5161 191.492 33.1412 191.492 34.9922C191.492 36.8433 191.073 38.4791 190.233 39.8997C189.415 41.2987 188.285 42.3749 186.843 43.1283C185.423 43.8816 183.83 44.2583 182.065 44.2583ZM182.065 39.48C183.12 39.48 184.013 39.0925 184.745 38.3177C185.498 37.5428 185.875 36.4343 185.875 34.9922C185.875 33.5501 185.509 32.4416 184.777 31.6668C184.067 30.8919 183.184 30.5045 182.13 30.5045C181.053 30.5045 180.16 30.8919 179.45 31.6668C178.74 32.4201 178.384 33.5286 178.384 34.9922C178.384 36.4343 178.729 37.5428 179.418 38.3177C180.128 39.0925 181.01 39.48 182.065 39.48ZM193.324 35.0245C193.324 33.238 193.69 31.6453 194.421 30.2462C195.175 28.8471 196.176 27.7602 197.424 26.9853C198.694 26.1889 200.071 25.7907 201.557 25.7907C202.697 25.7907 203.72 25.9952 204.624 26.4042C205.528 26.7916 206.26 27.3405 206.819 28.0508V25.9845H212.34V52.5881H206.819V41.74C206.195 42.4933 205.431 43.096 204.527 43.548C203.644 44 202.633 44.226 201.492 44.226C200.028 44.226 198.672 43.8386 197.424 43.0637C196.176 42.2888 195.175 41.2019 194.421 39.8028C193.69 38.4038 193.324 36.811 193.324 35.0245ZM206.819 34.9922C206.819 34.0236 206.625 33.2165 206.238 32.5708C205.872 31.9035 205.388 31.4085 204.785 31.0856C204.183 30.7412 203.548 30.5691 202.88 30.5691C202.235 30.5691 201.61 30.7412 201.008 31.0856C200.405 31.4085 199.91 31.9035 199.523 32.5708C199.135 33.238 198.941 34.0559 198.941 35.0245C198.941 35.9931 199.135 36.811 199.523 37.4782C199.91 38.124 200.405 38.619 201.008 38.9634C201.61 39.2863 202.235 39.4477 202.88 39.4477C203.526 39.4477 204.15 39.2863 204.753 38.9634C205.377 38.619 205.872 38.1132 206.238 37.446C206.625 36.7787 206.819 35.9608 206.819 34.9922ZM234.124 25.9845V44H228.603V41.5463C228.043 42.3427 227.279 42.9884 226.311 43.4834C225.364 43.957 224.309 44.1937 223.147 44.1937C221.769 44.1937 220.553 43.8924 219.498 43.2897C218.444 42.6655 217.626 41.7723 217.045 40.61C216.463 39.4477 216.173 38.0809 216.173 36.5097V25.9845H221.661V35.7671C221.661 36.9724 221.973 37.9087 222.598 38.576C223.222 39.2432 224.061 39.5768 225.116 39.5768C226.192 39.5768 227.042 39.2432 227.667 38.576C228.291 37.9087 228.603 36.9724 228.603 35.7671V25.9845H234.124ZM255.072 34.7017C255.072 35.2182 255.039 35.7563 254.975 36.3159H242.48C242.566 37.4352 242.922 38.2962 243.546 38.8988C244.191 39.48 244.977 39.7705 245.903 39.7705C247.28 39.7705 248.238 39.1894 248.776 38.0271H254.652C254.351 39.2109 253.802 40.2764 253.005 41.2234C252.231 42.1705 251.251 42.913 250.067 43.4511C248.884 43.9892 247.56 44.2583 246.096 44.2583C244.331 44.2583 242.76 43.8816 241.383 43.1283C240.005 42.3749 238.929 41.2987 238.154 39.8997C237.379 38.5006 236.992 36.8648 236.992 34.9922C236.992 33.1196 237.368 31.4838 238.122 30.0848C238.897 28.6857 239.973 27.6095 241.35 26.8562C242.728 26.1028 244.31 25.7262 246.096 25.7262C247.84 25.7262 249.389 26.0921 250.745 26.8239C252.101 27.5557 253.156 28.5996 253.909 29.9556C254.684 31.3116 255.072 32.8936 255.072 34.7017ZM249.422 33.2488C249.422 32.3017 249.099 31.5484 248.453 30.9888C247.807 30.4291 247 30.1493 246.032 30.1493C245.106 30.1493 244.321 30.4184 243.675 30.9565C243.051 31.4946 242.663 32.2587 242.513 33.2488H249.422Z"
            fill="#FFA500" />
        </svg>