<svg width="245" height="74" viewBox="0 0 245 74" fill="none" xmlns="http://www.w3.org/2000/svg">
  <path d="M49.8631 50.5142C61.4049 49.4346 69.8126 46.1496 69.8126 42.2785C69.8126 41.9547 69.6032 41.6616 69.491 41.3455C70.1717 41.5228 70.8599 41.7079 71.6079 41.7079C75.7743 41.7079 79.1404 38.7853 79.1404 35.1996C79.1404 31.6061 75.7743 28.7144 71.6079 28.7144C71.0992 28.7144 70.6504 28.8763 70.1642 28.9611C70.5831 27.5268 70.8748 26.054 70.8748 24.4963C70.8748 14.996 62.5195 7.26926 52.2118 7.26926C44.9037 7.26926 38.6504 11.1943 35.5835 16.8313C34.3568 16.1295 32.9879 15.6977 31.5517 15.6977C27.1833 15.6977 23.5554 19.3143 22.4334 24.2264C20.5185 23.4476 18.3044 22.9617 15.9257 22.9617C8.78963 22.9617 3 26.9948 3 31.9531C3 36.4334 7.74241 40.1194 13.9135 40.798C13.6368 41.2838 13.4198 41.7696 13.4198 42.2785C13.4198 45.5481 19.4114 48.4013 28.223 49.8587" stroke="#FFA500" stroke-width="5.80682" stroke-miterlimit="0.5" stroke-linecap="round" stroke-linejoin="round"/>
  <path d="M19.8154 63.3766C13.6443 68.9827 20.885 73.7637 23.6452 66.0602L25.7621 58.9195L19.8154 63.3766Z" fill="#FFA500" stroke="#FFA500" stroke-width="3.77434" stroke-miterlimit="3.2"/>
  <path d="M42.5452 65.302C36.3741 70.9081 43.6148 75.6891 46.375 67.9855L48.4919 60.8448L42.5452 65.302Z" fill="#FFA500" stroke="#FFA500" stroke-width="3.77434" stroke-miterlimit="3.2"/>
  <path d="M34.4811 55.4729C28.31 61.079 35.5583 65.8522 38.311 58.1564L40.4353 51.0157L34.4811 55.4729Z" fill="#FFA500" stroke="#FFA500" stroke-width="3.77434" stroke-miterlimit="3.2"/>
  <path d="M49.8631 50.5142C61.4049 49.4346 69.8126 46.1496 69.8126 42.2785C69.8126 41.9547 69.6032 41.6616 69.491 41.3455C70.1717 41.5228 70.8599 41.7079 71.6079 41.7079C75.7743 41.7079 79.1404 38.7853 79.1404 35.1996C79.1404 31.6061 75.7743 28.7144 71.6079 28.7144C71.0992 28.7144 70.6504 28.8763 70.1642 28.9611C70.5831 27.5268 70.8748 26.054 70.8748 24.4963C70.8748 14.996 62.5195 7.26926 52.2118 7.26926C44.9037 7.26926 38.6504 11.1943 35.5835 16.8313C34.3568 16.1295 32.9879 15.6977 31.5517 15.6977C27.1833 15.6977 23.5554 19.3143 22.4334 24.2264C20.5185 23.4476 18.3044 22.9617 15.9257 22.9617C8.78963 22.9617 3 26.9948 3 31.9531C3 36.4334 7.74241 40.1194 13.9135 40.798C13.6368 41.2838 13.4198 41.7696 13.4198 42.2785C13.4198 45.5481 19.4114 48.4013 28.223 49.8587" stroke="#FFA500" stroke-width="5.80682" stroke-miterlimit="0.5" stroke-linecap="round" stroke-linejoin="round"/>
  <path d="M19.8154 63.3766C13.6443 68.9827 20.885 73.7637 23.6452 66.0602L25.7621 58.9195L19.8154 63.3766Z" fill="#FFA500" stroke="#FFA500" stroke-width="3.77434" stroke-miterlimit="3.2"/>
  <path d="M42.5452 65.302C36.3741 70.9081 43.6148 75.6891 46.375 67.9855L48.4919 60.8448L42.5452 65.302Z" fill="#FFA500" stroke="#FFA500" stroke-width="3.77434" stroke-miterlimit="3.2"/>
  <path d="M34.4811 55.4729C28.31 61.079 35.5583 65.8522 38.311 58.1564L40.4353 51.0157L34.4811 55.4729Z" fill="#FFA500" stroke="#FFA500" stroke-width="3.77434" stroke-miterlimit="3.2"/>
  <path d="M43.5152 15.2103L26.1143 28.599L43.2981 33.2023L27.4168 47.5706L21 45.1478L25.5499 59L43.6281 52.9535L35.9957 50.4254L56.7221 29.7893L37.7757 26.0392L56.0709 12.0923L45.6338 9.996L57 1.13693L52.8235 1L35.1881 13.1667L43.5152 15.2103V15.2103Z" fill="#FBFBFB" stroke="#FFA500" stroke-width="0.471792" stroke-miterlimit="0.5" stroke-linecap="round"/>
  <path d="M34.5 25H46.5H62.5L63.5 30.5L68.5 28.5H82.5H99L144 27.5L231 28.5L234 35.5L232.5 44.5H217.5L192 44L150 44.5H138H127H116H100.5H80L64 44H39.5L38 36.5L36 30L35 25H34.5Z" fill="#110023"/>
  <path d="M61.9007 24.9472L56.9339 44H51.3158L48.276 31.461L45.1277 44H39.5096L34.6785 24.9472H39.6453L42.3865 38.8161L45.7791 24.9472H50.8816L54.1384 38.8161L56.9068 24.9472H61.9007ZM78.5043 36.1835C78.5043 36.6177 78.4771 37.0701 78.4229 37.5405H67.9194C67.9918 38.4814 68.2903 39.2051 68.815 39.7118C69.3578 40.2003 70.0183 40.4446 70.7963 40.4446C71.9543 40.4446 72.7595 39.956 73.2118 38.979H78.1514C77.8981 39.9741 77.4367 40.8698 76.7673 41.6659C76.1159 42.462 75.2926 43.0863 74.2975 43.5386C73.3023 43.991 72.1895 44.2171 70.9591 44.2171C69.4754 44.2171 68.1546 43.9005 66.9966 43.2672C65.8386 42.6339 64.9339 41.7292 64.2825 40.5531C63.6311 39.377 63.3054 38.0019 63.3054 36.4277C63.3054 34.8536 63.6221 33.4784 64.2554 32.3023C64.9068 31.1262 65.8114 30.2215 66.9694 29.5883C68.1275 28.955 69.4574 28.6383 70.9591 28.6383C72.4247 28.6383 73.7275 28.9459 74.8674 29.5611C76.0073 30.1763 76.8939 31.0539 77.5272 32.1938C78.1786 33.3337 78.5043 34.6636 78.5043 36.1835ZM73.7546 34.9621C73.7546 34.166 73.4832 33.5327 72.9404 33.0623C72.3976 32.5918 71.7191 32.3566 70.9049 32.3566C70.1268 32.3566 69.4664 32.5828 68.9236 33.0351C68.3989 33.4875 68.0732 34.1298 67.9465 34.9621H73.7546ZM80.0299 36.4006C80.0299 34.8445 80.3194 33.4784 80.8984 32.3023C81.4955 31.1262 82.3007 30.2215 83.3139 29.5883C84.3272 28.955 85.458 28.6383 86.7065 28.6383C87.774 28.6383 88.7059 28.8555 89.502 29.2897C90.3162 29.724 90.9405 30.2939 91.3747 30.9996V28.8555H96.0158V44H91.3747V41.8559C90.9224 42.5615 90.2891 43.1315 89.4749 43.5657C88.6787 44 87.7469 44.2171 86.6794 44.2171C85.449 44.2171 84.3272 43.9005 83.3139 43.2672C82.3007 42.6158 81.4955 41.7021 80.8984 40.526C80.3194 39.3318 80.0299 37.9567 80.0299 36.4006ZM91.3747 36.4277C91.3747 35.2697 91.049 34.356 90.3976 33.6865C89.7644 33.017 88.9863 32.6823 88.0635 32.6823C87.1408 32.6823 86.3537 33.017 85.7023 33.6865C85.069 34.3379 84.7524 35.2426 84.7524 36.4006C84.7524 37.5586 85.069 38.4814 85.7023 39.1689C86.3537 39.8384 87.1408 40.1732 88.0635 40.1732C88.9863 40.1732 89.7644 39.8384 90.3976 39.1689C91.049 38.4995 91.3747 37.5857 91.3747 36.4277ZM107.814 40.0646V44H105.453C103.77 44 102.458 43.5929 101.518 42.7787C100.577 41.9463 100.106 40.5984 100.106 38.7347V32.7094H98.2606V28.8555H100.106V25.1643H104.747V28.8555H107.787V32.7094H104.747V38.789C104.747 39.2413 104.856 39.567 105.073 39.766C105.29 39.9651 105.652 40.0646 106.159 40.0646H107.814ZM119.709 28.6926C121.446 28.6926 122.839 29.2716 123.888 30.4296C124.938 31.5695 125.462 33.1437 125.462 35.1521V44H120.849V35.7764C120.849 34.7631 120.586 33.976 120.061 33.4151C119.537 32.8542 118.831 32.5737 117.944 32.5737C117.058 32.5737 116.352 32.8542 115.827 33.4151C115.303 33.976 115.04 34.7631 115.04 35.7764V44H110.399V23.9158H115.04V30.891C115.511 30.2215 116.153 29.6878 116.967 29.2897C117.782 28.8916 118.695 28.6926 119.709 28.6926ZM142.964 36.1835C142.964 36.6177 142.936 37.0701 142.882 37.5405H132.379C132.451 38.4814 132.75 39.2051 133.274 39.7118C133.817 40.2003 134.478 40.4446 135.256 40.4446C136.414 40.4446 137.219 39.956 137.671 38.979H142.611C142.357 39.9741 141.896 40.8698 141.227 41.6659C140.575 42.462 139.752 43.0863 138.757 43.5386C137.762 43.991 136.649 44.2171 135.418 44.2171C133.935 44.2171 132.614 43.9005 131.456 43.2672C130.298 42.6339 129.393 41.7292 128.742 40.5531C128.09 39.377 127.765 38.0019 127.765 36.4277C127.765 34.8536 128.081 33.4784 128.715 32.3023C129.366 31.1262 130.271 30.2215 131.429 29.5883C132.587 28.955 133.917 28.6383 135.418 28.6383C136.884 28.6383 138.187 28.9459 139.327 29.5611C140.467 30.1763 141.353 31.0539 141.987 32.1938C142.638 33.3337 142.964 34.6636 142.964 36.1835ZM138.214 34.9621C138.214 34.166 137.943 33.5327 137.4 33.0623C136.857 32.5918 136.178 32.3566 135.364 32.3566C134.586 32.3566 133.926 32.5828 133.383 33.0351C132.858 33.4875 132.532 34.1298 132.406 34.9621H138.214ZM150.053 31.3795C150.596 30.5472 151.274 29.8959 152.089 29.4254C152.903 28.9369 153.808 28.6926 154.803 28.6926V33.6051H153.527C152.369 33.6051 151.501 33.8584 150.922 34.365C150.343 34.8536 150.053 35.7221 150.053 36.9705V44H145.412V28.8555H150.053V31.3795ZM161.662 23.9158V44H157.021V23.9158H161.662ZM171.919 44.2171C170.435 44.2171 169.097 43.9005 167.902 43.2672C166.726 42.6339 165.794 41.7292 165.107 40.5531C164.437 39.377 164.103 38.0019 164.103 36.4277C164.103 34.8717 164.446 33.5056 165.134 32.3295C165.822 31.1353 166.762 30.2215 167.957 29.5883C169.151 28.955 170.49 28.6383 171.973 28.6383C173.457 28.6383 174.796 28.955 175.99 29.5883C177.184 30.2215 178.125 31.1353 178.813 32.3295C179.5 33.5056 179.844 34.8717 179.844 36.4277C179.844 37.9838 179.491 39.3589 178.786 40.5531C178.098 41.7292 177.148 42.6339 175.936 43.2672C174.742 43.9005 173.403 44.2171 171.919 44.2171ZM171.919 40.2003C172.806 40.2003 173.557 39.8746 174.172 39.2232C174.805 38.5718 175.122 37.64 175.122 36.4277C175.122 35.2154 174.814 34.2836 174.199 33.6322C173.602 32.9809 172.86 32.6552 171.973 32.6552C171.069 32.6552 170.318 32.9809 169.721 33.6322C169.124 34.2655 168.825 35.1973 168.825 36.4277C168.825 37.64 169.115 38.5718 169.694 39.2232C170.291 39.8746 171.033 40.2003 171.919 40.2003ZM181.384 36.4549C181.384 34.9531 181.691 33.6141 182.306 32.438C182.94 31.2619 183.781 30.3482 184.831 29.6968C185.898 29.0273 187.056 28.6926 188.305 28.6926C189.264 28.6926 190.123 28.8645 190.883 29.2083C191.643 29.534 192.258 29.9954 192.728 30.5925V28.8555H197.37V51.2194H192.728V42.1001C192.204 42.7334 191.561 43.2401 190.801 43.62C190.06 44 189.209 44.19 188.25 44.19C187.02 44.19 185.88 43.8643 184.831 43.2129C183.781 42.5615 182.94 41.6478 182.306 40.4717C181.691 39.2956 181.384 37.9567 181.384 36.4549ZM192.728 36.4277C192.728 35.6135 192.566 34.935 192.24 34.3922C191.932 33.8313 191.525 33.4151 191.019 33.1437C190.512 32.8542 189.978 32.7094 189.417 32.7094C188.874 32.7094 188.35 32.8542 187.843 33.1437C187.337 33.4151 186.92 33.8313 186.595 34.3922C186.269 34.9531 186.106 35.6406 186.106 36.4549C186.106 37.2691 186.269 37.9567 186.595 38.5176C186.92 39.0604 187.337 39.4765 187.843 39.766C188.35 40.0374 188.874 40.1732 189.417 40.1732C189.96 40.1732 190.485 40.0374 190.991 39.766C191.516 39.4765 191.932 39.0513 192.24 38.4904C192.566 37.9295 192.728 37.242 192.728 36.4277ZM215.682 28.8555V44H211.041V41.9373C210.57 42.6068 209.928 43.1496 209.114 43.5657C208.318 43.9638 207.431 44.1628 206.454 44.1628C205.296 44.1628 204.274 43.9095 203.387 43.4029C202.5 42.8782 201.813 42.1273 201.324 41.1502C200.836 40.1732 200.591 39.0242 200.591 37.7033V28.8555H205.205V37.0791C205.205 38.0924 205.468 38.8794 205.992 39.4404C206.517 40.0013 207.223 40.2817 208.109 40.2817C209.014 40.2817 209.729 40.0013 210.254 39.4404C210.778 38.8794 211.041 38.0924 211.041 37.0791V28.8555H215.682ZM233.291 36.1835C233.291 36.6177 233.264 37.0701 233.21 37.5405H222.707C222.779 38.4814 223.077 39.2051 223.602 39.7118C224.145 40.2003 224.805 40.4446 225.583 40.4446C226.741 40.4446 227.547 39.956 227.999 38.979H232.939C232.685 39.9741 232.224 40.8698 231.554 41.6659C230.903 42.462 230.08 43.0863 229.085 43.5386C228.089 43.991 226.977 44.2171 225.746 44.2171C224.263 44.2171 222.942 43.9005 221.784 43.2672C220.626 42.6339 219.721 41.7292 219.07 40.5531C218.418 39.377 218.093 38.0019 218.093 36.4277C218.093 34.8536 218.409 33.4784 219.043 32.3023C219.694 31.1262 220.599 30.2215 221.757 29.5883C222.915 28.955 224.244 28.6383 225.746 28.6383C227.212 28.6383 228.515 28.9459 229.655 29.5611C230.794 30.1763 231.681 31.0539 232.314 32.1938C232.966 33.3337 233.291 34.6636 233.291 36.1835ZM228.542 34.9621C228.542 34.166 228.27 33.5327 227.728 33.0623C227.185 32.5918 226.506 32.3566 225.692 32.3566C224.914 32.3566 224.254 32.5828 223.711 33.0351C223.186 33.4875 222.86 34.1298 222.734 34.9621H228.542Z" fill="#FFA500"/>
  </svg>
  